<svg xmlns="http://www.w3.org/2000/svg" viewBox="0 0 16 16" fill="currentColor">
    <mask id="mask0_15_390" style="mask-type:alpha" maskUnits="userSpaceOnUse" x="0" y="0"
        width="16" height="16">
        <rect width="16" height="16" />
    </mask>
    <g mask="url(#mask0_15_390)">
        <path
            d="M3.33333 14.6668C2.96667 14.6668 2.65278 14.5363 2.39167 14.2752C2.13056 14.0141 2 13.7002 2 13.3335V4.00016C2 3.6335 2.13056 3.31961 2.39167 3.0585C2.65278 2.79738 2.96667 2.66683 3.33333 2.66683H4V1.3335H5.33333V2.66683H10.6667V1.3335H12V2.66683H12.6667C13.0333 2.66683 13.3472 2.79738 13.6083 3.0585C13.8694 3.31961 14 3.6335 14 4.00016V13.3335C14 13.7002 13.8694 14.0141 13.6083 14.2752C13.3472 14.5363 13.0333 14.6668 12.6667 14.6668H3.33333ZM3.33333 13.3335H12.6667V6.66683H3.33333V13.3335ZM3.33333 5.3335H12.6667V4.00016H3.33333V5.3335Z"
        />
    </g>
</svg>