<svg xmlns="http://www.w3.org/2000/svg" viewBox="0 0 16 16" fill="currentColor">
    <mask id="mask0_13_309" style="mask-type:alpha" maskUnits="userSpaceOnUse" x="0" y="0"
        width="16" height="16">
        <rect width="16" height="16" />
    </mask>
    <g mask="url(#mask0_13_309)">
        <path
            d="M10.2 11.1335L11.1333 10.2002L8.66665 7.7335V4.66683H7.33331V8.26683L10.2 11.1335ZM7.99998 14.6668C7.07776 14.6668 6.21109 14.4918 5.39998 14.1418C4.58887 13.7918 3.88331 13.3168 3.28331 12.7168C2.68331 12.1168 2.20831 11.4113 1.85831 10.6002C1.50831 9.78905 1.33331 8.92238 1.33331 8.00016C1.33331 7.07794 1.50831 6.21127 1.85831 5.40016C2.20831 4.58905 2.68331 3.8835 3.28331 3.2835C3.88331 2.6835 4.58887 2.2085 5.39998 1.8585C6.21109 1.5085 7.07776 1.3335 7.99998 1.3335C8.9222 1.3335 9.78887 1.5085 10.6 1.8585C11.4111 2.2085 12.1166 2.6835 12.7166 3.2835C13.3166 3.8835 13.7916 4.58905 14.1416 5.40016C14.4916 6.21127 14.6666 7.07794 14.6666 8.00016C14.6666 8.92238 14.4916 9.78905 14.1416 10.6002C13.7916 11.4113 13.3166 12.1168 12.7166 12.7168C12.1166 13.3168 11.4111 13.7918 10.6 14.1418C9.78887 14.4918 8.9222 14.6668 7.99998 14.6668ZM7.99998 13.3335C9.47776 13.3335 10.7361 12.8141 11.775 11.7752C12.8139 10.7363 13.3333 9.47794 13.3333 8.00016C13.3333 6.52238 12.8139 5.26405 11.775 4.22516C10.7361 3.18627 9.47776 2.66683 7.99998 2.66683C6.5222 2.66683 5.26387 3.18627 4.22498 4.22516C3.18609 5.26405 2.66665 6.52238 2.66665 8.00016C2.66665 9.47794 3.18609 10.7363 4.22498 11.7752C5.26387 12.8141 6.5222 13.3335 7.99998 13.3335Z"
        />
    </g>
</svg>