<svg xmlns="http://www.w3.org/2000/svg" viewBox="0 0 16 16" fill="currentColor">
    <g clip-path="url(#clip0_15_332)">
        <path
            d="M5.90852 5.85695C5.97861 5.82542 6.00998 5.74309 5.97861 5.6729C5.94721 5.60262 5.86472 5.57109 5.7944 5.60249C5.73458 5.62923 4.32554 6.28407 4.02235 8.61859C4.01244 8.69498 4.06632 8.7649 4.14271 8.77485C4.14881 8.77563 4.15485 8.77603 4.16086 8.77603C4.22989 8.77603 4.28984 8.72481 4.299 8.65452C4.44652 7.51852 4.8765 6.81846 5.21119 6.4312C5.5715 6.01425 5.90219 5.85987 5.90852 5.85695Z"
        />
        <path
            d="M10.9892 11.7056C10.8683 11.6397 10.7345 11.5766 10.5928 11.5099C10.1123 11.2835 9.57155 11.0286 9.18974 10.5145L11.8173 8.29326C11.9748 8.1607 12.0712 7.97475 12.0888 7.7697C12.1021 7.61473 12.0691 7.46294 11.9951 7.33005C12.1028 7.20693 12.1744 7.05068 12.195 6.88576C12.2219 6.67038 12.1637 6.46504 12.0312 6.30764L11.7602 5.98578C11.6277 5.82834 11.4417 5.73194 11.2367 5.71432C11.0317 5.6967 10.832 5.76003 10.6735 5.89341L8.40181 7.84252C8.39452 7.62096 8.37914 7.36155 8.34859 7.09468C8.2657 6.37008 8.10167 5.86276 7.85948 5.57841C8.14364 5.52611 8.41867 5.42163 8.67251 5.2663C9.2153 4.93413 9.59625 4.41044 9.74519 3.79176C9.93675 2.99602 9.69981 2.14719 9.12687 1.56352L8.9861 0.386402C8.95979 0.16613 8.77276 0 8.55111 0C8.53368 0 8.51603 0.00105 8.49864 0.00315001L5.52916 0.358281C5.2891 0.387058 5.11717 0.605721 5.14588 0.845746L5.30288 2.15887C5.2201 2.32294 5.15602 2.49681 5.11274 2.67669C4.91386 3.50275 5.17413 4.33347 5.72801 4.9007C5.54402 5.01134 5.21954 5.23772 4.87392 5.62537C4.40014 6.15677 3.79413 7.10741 3.59787 8.61876C3.45494 9.71907 3.38295 11.3124 3.5626 12.2107L3.57169 12.2563C3.67925 12.797 3.81621 13.4845 4.63561 13.7702C4.31312 13.8632 3.98539 14.0121 3.73943 14.2503C3.47289 14.5085 3.33777 14.8359 3.33777 15.2235V15.8605C3.33777 15.8976 3.3525 15.9331 3.37872 15.9592C3.40487 15.9854 3.44031 16 3.47722 16C3.47732 16 3.47739 16 3.47748 16L10.2913 15.9876C10.9709 15.9876 11.5437 15.8417 11.9478 15.5658C12.4152 15.2466 12.6622 14.7497 12.6622 14.1288C12.6622 12.8171 12.2854 12.4132 10.9892 11.7056ZM11.8109 7.74585C11.7997 7.87667 11.7382 7.99532 11.6375 8.08008L8.65177 10.6041C8.56328 10.6787 8.45096 10.7197 8.33549 10.7197C8.1899 10.7197 8.05275 10.6559 7.9591 10.5447L5.51928 7.64679C5.43473 7.54635 5.39433 7.41897 5.40556 7.28815C5.41396 7.1903 5.45051 7.09931 5.51042 7.02423L6.82257 8.66119C6.8501 8.69555 6.89059 8.71343 6.93144 8.71343C6.96206 8.71343 6.99287 8.70342 7.01859 8.68278C7.07867 8.63461 7.08835 8.54684 7.04018 8.48676L5.7178 6.83704L5.90057 6.68315C5.98906 6.60863 6.10141 6.56761 6.21688 6.56761C6.36247 6.56761 6.49963 6.6314 6.59327 6.7426L8.35059 8.82991C8.37441 8.8582 8.4085 8.87588 8.44535 8.87903C8.48227 8.88218 8.51882 8.87057 8.5471 8.84678L10.7335 7.00596C10.822 6.93144 10.9344 6.89039 11.0499 6.89039C11.1954 6.89039 11.3326 6.95418 11.4262 7.06538L11.6972 7.38727C11.7818 7.48765 11.8222 7.61503 11.8109 7.74585ZM10.8542 6.10597C10.9546 6.02141 11.082 5.98105 11.2128 5.99224C11.3437 6.00347 11.4623 6.06499 11.5469 6.16543L11.8178 6.48729C11.8998 6.58458 11.9354 6.71383 11.9183 6.85125C11.907 6.94181 11.8726 7.02817 11.8212 7.10141L11.6396 6.8857C11.4928 6.7114 11.2779 6.61145 11.0499 6.61145C10.8688 6.61145 10.6926 6.67576 10.5539 6.79258L8.47416 8.54359L8.40394 8.46018C8.40538 8.41447 8.40752 8.32542 8.40762 8.20513L10.8542 6.10597ZM5.5623 0.635187L8.53175 0.280056C8.53824 0.279301 8.54471 0.278907 8.55107 0.278907C8.63163 0.278907 8.69958 0.339381 8.7092 0.419608L8.83966 1.51079L5.56765 2.02418L5.52135 1.63709L6.59974 1.4911C6.67606 1.4808 6.72958 1.41052 6.71924 1.33423C6.70894 1.25791 6.63865 1.20432 6.56236 1.21472L5.48824 1.36012L5.42278 0.812638C5.41235 0.725258 5.47495 0.645687 5.5623 0.635187ZM5.38387 2.74196C5.4198 2.59272 5.47174 2.44809 5.53848 2.31106L8.94528 1.77654C9.43885 2.29134 9.64127 3.03195 9.47406 3.72656C9.34255 4.27283 9.00622 4.73519 8.52696 5.02847C8.04769 5.32175 7.48292 5.41084 6.93666 5.27932C5.80899 5.00786 5.11241 3.86959 5.38387 2.74196ZM5.50908 13.6218C4.16376 13.6911 3.98329 12.8959 3.84525 12.2019L3.83609 12.156C3.66265 11.2887 3.73437 9.73305 3.87445 8.65469C4.0605 7.22209 4.62822 6.32391 5.07172 5.8227C5.45435 5.39026 5.81289 5.17039 5.94549 5.09761C6.2094 5.30836 6.52194 5.46639 6.87139 5.55052C7.0579 5.59544 7.24631 5.61762 7.43338 5.61762C7.44329 5.61762 7.4532 5.61723 7.4631 5.6171C8.00622 5.84272 8.12628 7.28726 8.12982 8.13458L6.80665 6.56292C6.65988 6.38862 6.44496 6.28867 6.21691 6.28867C6.03582 6.28867 5.85968 6.35299 5.72098 6.4698L5.39916 6.74077C5.24172 6.87333 5.14532 7.05924 5.1277 7.26429C5.11011 7.46934 5.17341 7.66897 5.30597 7.8264L7.74575 10.7243C7.89249 10.8987 8.10741 10.9986 8.33549 10.9986C8.51659 10.9986 8.69276 10.9343 8.83165 10.8173L8.97639 10.695C9.40013 11.2562 9.99204 11.5352 10.474 11.7622C10.6118 11.8271 10.742 11.8884 10.8556 11.9505C11.1034 12.0858 11.3121 12.2071 11.4878 12.3228H11.0494C10.9724 12.3228 10.9099 12.3853 10.9099 12.4623C10.9099 12.5393 10.9724 12.6017 11.0494 12.6017H11.8576C11.9646 12.6975 12.0507 12.7943 12.12 12.897H10.8689C10.7919 12.897 10.7295 12.9595 10.7295 13.0365C10.7295 13.1135 10.7919 13.1759 10.8689 13.1759H12.2624C12.3549 13.4276 12.3833 13.7278 12.3833 14.1288C12.3833 15.5035 11.0726 15.7088 10.2911 15.7088L3.61671 15.7209V15.2267H5.01187C5.08888 15.2267 5.15132 15.1643 5.15132 15.0872C5.15132 15.0102 5.08888 14.9478 5.01187 14.9478H3.64709C3.69188 14.7572 3.78658 14.5932 3.93309 14.4511C4.36559 14.0317 5.13367 13.9239 5.54032 13.9005C7.65427 13.7792 8.34173 13.848 8.53664 13.8798C8.59366 13.8891 8.64292 13.8971 8.70877 13.8971C8.78578 13.8971 8.84822 13.8347 8.84822 13.7577C8.84822 13.6807 8.78578 13.6182 8.70877 13.6182C8.66552 13.6182 8.63393 13.6131 8.58156 13.6045C8.36142 13.5686 7.64846 13.5055 5.50908 13.6218Z"
        />
        <path
            d="M7.35793 14.9478H5.75011C5.6731 14.9478 5.61066 15.0102 5.61066 15.0872C5.61066 15.1642 5.6731 15.2267 5.75011 15.2267H7.35793C7.43494 15.2267 7.49738 15.1642 7.49738 15.0872C7.49738 15.0102 7.43494 14.9478 7.35793 14.9478Z"
        />
    </g>
    <defs>
        <clipPath id="clip0_15_332">
            <rect width="16" height="16" />
        </clipPath>
    </defs>
</svg>